<svg xmlns="http://www.w3.org/2000/svg" viewBox="0 0 1200 460" width="1200" height="460" role="img" aria-label="What the ground sees today: a dot in the sky. What SkyLive shows: the freefall POV with skydivers in formation, live, the same moment.">
<defs>
  <linearGradient id="bg" x1="0" y1="0" x2="0" y2="1"><stop offset="0" stop-color="#0c1320"/><stop offset="1" stop-color="#0a0e16"/></linearGradient>
  <linearGradient id="sky" x1="0" y1="0" x2="0" y2="1"><stop offset="0" stop-color="#3f74a8"/><stop offset=".6" stop-color="#8fb6d6"/><stop offset="1" stop-color="#cfe0ec"/></linearGradient>
  <linearGradient id="pov" x1="0" y1="0" x2="0" y2="1">
    <stop offset="0" stop-color="#1b4e7e"/><stop offset=".34" stop-color="#3f86bf"/><stop offset=".47" stop-color="#bfe0f0"/><stop offset=".52" stop-color="#9fb877"/><stop offset=".72" stop-color="#5c8048"/><stop offset="1" stop-color="#33502f"/></linearGradient>
  <clipPath id="leftClip"><rect x="40" y="78" width="470" height="300" rx="16"/></clipPath>
  <clipPath id="povClip"><rect x="708" y="104" width="430" height="248" rx="6"/></clipPath>
  <!-- reusable belly-flyer (centred ~130,120) -->
  <g id="flyer">
    <g fill="none" stroke="#2a3340" stroke-width="22" stroke-linecap="round" stroke-linejoin="round">
      <path d="M112,104 L72,86 L62,50"/><path d="M148,104 L188,86 L198,50"/>
      <path d="M118,176 L80,206 L66,172"/><path d="M142,176 L180,206 L194,172"/></g>
    <path d="M103,98 C95,126 102,158 113,180 L147,180 C158,158 165,126 157,98 Q130,87 103,98 Z" fill="#2a3340"/>
    <ellipse cx="130" cy="62" rx="26.5" ry="24.5" fill="#3c4856"/>
    <path d="M107,60 Q130,78 153,60 Q150,72 130,73 Q110,72 107,60 Z" fill="#0c141d"/>
    <rect x="115" y="39" width="30" height="12.5" rx="3" fill="#0e1418" stroke="#22d3ee" stroke-width="1.8"/>
    <g fill="none" stroke="#dff1fb" stroke-width="2.6" stroke-linecap="round" opacity=".55">
      <path d="M110,101 L74,85"/><path d="M150,101 L186,85"/><path d="M74,85 L65,52"/><path d="M186,85 L195,52"/></g>
  </g>
  <style>
    .mono{font-family:ui-monospace,"SF Mono",Menlo,monospace}
    .sans{font-family:-apple-system,"Segoe UI",Roboto,sans-serif}
    @keyframes drift{0%,100%{transform:translate(0px,0px)}50%{transform:translate(16px,-12px)}}
    @keyframes hunt{0%,100%{transform:translate(-4px,4px);opacity:.45}50%{transform:translate(12px,-8px);opacity:.9}}
    @keyframes clouds{from{transform:translateX(0)}to{transform:translateX(-120px)}}
    @keyframes pkt{0%{transform:translateX(0);opacity:0}12%{opacity:1}88%{opacity:1}100%{transform:translateX(330px);opacity:0}}
    @keyframes blink{0%,55%{opacity:1}56%,100%{opacity:.15}}
    @keyframes bar{0%{width:0}60%{width:150px}100%{width:150px}}
    @keyframes fa{0%,100%{transform:translate(0,0) rotate(0deg)}50%{transform:translate(-12px,10px) rotate(-4deg)}}
    @keyframes fb{0%,100%{transform:translate(0,0) rotate(0deg)}50%{transform:translate(10px,8px) rotate(3deg)}}
    #dot{animation:drift 6s ease-in-out infinite}
    #retic{animation:hunt 6s ease-in-out infinite}
    #clouds{animation:clouds 7s linear infinite}
    #pkt{animation:pkt 3.2s ease-in-out infinite}
    #rec{animation:blink 1.4s steps(1) infinite}
    #linkbar{animation:bar 3.2s ease-out infinite}
    #pdA{animation:fa 7s ease-in-out infinite}
    #pdB{animation:fb 9s ease-in-out infinite}
  </style>
</defs>

<rect width="1200" height="460" fill="url(#bg)"/>

<!-- ============ LEFT: what the ground sees ============ -->
<text x="40" y="56" class="mono" font-size="15" letter-spacing="3" fill="#7186a0">WHAT THE GROUND SEES TODAY</text>
<g clip-path="url(#leftClip)">
  <rect x="40" y="78" width="470" height="300" fill="url(#sky)"/>
  <ellipse cx="150" cy="150" rx="70" ry="16" fill="#ffffff" opacity=".25"/>
  <ellipse cx="380" cy="120" rx="90" ry="18" fill="#ffffff" opacity=".18"/>
  <g id="dot"><circle cx="300" cy="210" r="4" fill="#0b2a3a"/></g>
  <g id="retic" fill="none" stroke="#0b2a3a" stroke-width="2" opacity=".6">
    <path d="M276 186 h-12 v12"/><path d="M324 186 h12 v12"/><path d="M276 234 h-12 v-12"/><path d="M324 234 h12 v-12"/>
  </g>
</g>
<rect x="40" y="78" width="470" height="300" rx="16" fill="none" stroke="rgba(255,255,255,.12)"/>
<text x="275" y="406" text-anchor="middle" class="sans" font-size="22" font-weight="700" fill="#cfdcea">just a dot in the sky</text>

<!-- ============ link beam ============ -->
<line x1="516" y1="225" x2="700" y2="225" stroke="#22d3ee" stroke-width="2" stroke-dasharray="6 7" opacity=".7"/>
<g id="pkt"><circle cx="520" cy="225" r="6" fill="#22d3ee"/><circle cx="520" cy="225" r="11" fill="#22d3ee" opacity=".25"/></g>
<text x="608" y="214" text-anchor="middle" class="mono" font-size="12" letter-spacing="2" fill="#67e8f9">14 ms</text>

<!-- ============ RIGHT: what SkyLive shows ============ -->
<text x="708" y="56" class="mono" font-size="15" letter-spacing="3" fill="#7186a0">WHAT <tspan fill="#cfdcea">SKYLIVE</tspan> SHOWS</text>
<rect x="694" y="90" width="458" height="276" rx="14" fill="#0e151f" stroke="rgba(255,255,255,.14)"/>
<g clip-path="url(#povClip)">
  <rect x="708" y="104" width="430" height="248" fill="url(#pov)"/>
  <g id="clouds" opacity=".5">
    <ellipse cx="760" cy="150" rx="60" ry="13" fill="#fff"/><ellipse cx="900" cy="135" rx="80" ry="15" fill="#fff"/>
    <ellipse cx="1040" cy="158" rx="55" ry="12" fill="#fff"/><ellipse cx="1180" cy="140" rx="70" ry="14" fill="#fff"/>
  </g>
  <!-- skydivers in formation (so it reads as a jump feed) -->
  <g id="pdB"><use href="#flyer" transform="translate(1018,116) scale(0.30)" opacity=".9"/></g>
  <g id="pdA"><use href="#flyer" transform="translate(828,118) scale(0.52)"/></g>
  <g opacity=".25" stroke="#0c2a18" stroke-width="2">
    <line x1="708" y1="300" x2="1138" y2="300"/><line x1="760" y1="280" x2="760" y2="352"/>
    <line x1="900" y1="280" x2="900" y2="352"/><line x1="1040" y1="280" x2="1040" y2="352"/></g>
</g>
<!-- HUD -->
<g class="mono" font-size="13" font-weight="700">
  <g id="rec"><circle cx="724" cy="120" r="5" fill="#ef5a4f"/></g>
  <text x="736" y="125" fill="#ffffff">LIVE</text>
  <text x="1126" y="125" text-anchor="end" fill="rgba(255,255,255,.9)">ALT 1300 m</text>
  <text x="722" y="342" fill="rgba(255,255,255,.92)">LINK</text>
  <rect x="766" y="332" width="150" height="9" rx="4" fill="rgba(255,255,255,.18)"/>
  <rect id="linkbar" x="766" y="332" width="150" height="9" rx="4" fill="#22d3ee"/>
  <text x="1126" y="342" text-anchor="end" fill="#67e8f9">98%</text>
</g>
<text x="923" y="406" text-anchor="middle" class="sans" font-size="22" font-weight="700" fill="#cfdcea">the whole jump — <tspan fill="#22d3ee">same moment</tspan></text>
</svg>
