<svg xmlns="http://www.w3.org/2000/svg" viewBox="0 0 1000 560" width="1000" height="560" role="img" aria-label="True-to-scale size comparison, same front view: the SkyDive Live sender is the same height as a GoPro and a little narrower.">
<defs>
  <linearGradient id="csbg" x1="0" y1="0" x2="0" y2="1"><stop offset="0" stop-color="#0c1320"/><stop offset="1" stop-color="#0a0e16"/></linearGradient>
  <linearGradient id="snd" x1="0" y1="0" x2="0" y2="1"><stop offset="0" stop-color="#cdd6df"/><stop offset="1" stop-color="#9aa6b2"/></linearGradient>
  <linearGradient id="gp" x1="0" y1="0" x2="0" y2="1"><stop offset="0" stop-color="#3a4452"/><stop offset="1" stop-color="#252c36"/></linearGradient>
  <style>.mono{font-family:ui-monospace,"SF Mono",Menlo,monospace}.sans{font-family:-apple-system,"Segoe UI",Roboto,sans-serif}</style>
</defs>
<rect width="1000" height="560" fill="url(#csbg)"/>
<text x="40" y="48" class="mono" font-size="15" letter-spacing="3" fill="#7186a0">TRUE TO SCALE · SAME VIEW</text>

<!-- scale: 6.4 px/mm · baseline y=470 · both H=51mm=326px → tops at 144 -->
<!-- shared height dimension (both 51 mm) -->
<line x1="96" y1="144" x2="96" y2="470" stroke="#22d3ee" stroke-width="1.5"/>
<line x1="90" y1="144" x2="102" y2="144" stroke="#22d3ee" stroke-width="1.5"/>
<line x1="90" y1="470" x2="102" y2="470" stroke="#22d3ee" stroke-width="1.5"/>
<text x="84" y="312" class="mono" font-size="13" fill="#67e8f9" text-anchor="end" transform="rotate(-90 84 312)">51 mm · same height</text>

<!-- SENDER (ours): 57 mm wide → 365px, x 130..495 -->
<rect x="130" y="144" width="365" height="326" rx="14" fill="url(#snd)" stroke="rgba(255,255,255,.25)"/>
<rect x="130" y="144" width="365" height="14" rx="14" fill="#e6edf3" opacity=".5"/>
<circle cx="250" cy="300" r="42" fill="#0e1726" stroke="#9aa6b2" stroke-width="6"/><circle cx="250" cy="300" r="22" fill="#1f4a78"/>
<!-- GoPro-style mount fingers below -->
<rect x="250" y="470" width="22" height="34" fill="#9aa6b2"/><rect x="300" y="470" width="22" height="34" fill="#9aa6b2"/>
<text x="312" y="500" class="sans" font-size="17" font-weight="700" fill="#cfdcea" text-anchor="middle">SkyDive·Live sender</text>
<!-- width dim -->
<line x1="130" y1="128" x2="495" y2="128" stroke="rgba(255,255,255,.4)" stroke-width="1"/>
<text x="312" y="120" class="mono" font-size="12" fill="#aebdce" text-anchor="middle">57 mm</text>

<!-- GoPro (reference): 71 mm wide → 454px, x 540..994 -->
<rect x="540" y="144" width="454" height="326" rx="20" fill="url(#gp)" stroke="rgba(255,255,255,.18)"/>
<rect x="540" y="144" width="454" height="14" rx="20" fill="#4a5666" opacity=".6"/>
<circle cx="640" cy="300" r="50" fill="#0c1320" stroke="#5a6675" stroke-width="6"/><circle cx="640" cy="300" r="26" fill="#11233a"/><circle cx="640" cy="300" r="10" fill="#2a4a6a"/>
<rect x="918" y="186" width="46" height="40" rx="6" fill="#1a212b" stroke="#4a5666" stroke-width="2"/>
<text x="767" y="500" class="sans" font-size="17" font-weight="700" fill="#9fb0c2" text-anchor="middle">a GoPro · for scale</text>
<line x1="540" y1="128" x2="994" y2="128" stroke="rgba(255,255,255,.4)" stroke-width="1"/>
<text x="767" y="120" class="mono" font-size="12" fill="#aebdce" text-anchor="middle">~71 mm</text>

<text x="500" y="542" class="sans" font-size="16" fill="#aebdce" text-anchor="middle">Same height as a GoPro — a slimmer footprint, but with a real <tspan fill="#22d3ee" font-weight="700">1 W radio</tspan> inside.</text>
</svg>
