<svg xmlns="http://www.w3.org/2000/svg" viewBox="0 0 1000 560" width="1000" height="560" role="img" aria-label="True-to-scale size comparison, same front view: the SkyLive sender is the same height as a GoPro and a little narrower.">
<defs>
  <linearGradient id="csbg" x1="0" y1="0" x2="0" y2="1"><stop offset="0" stop-color="#0c1320"/><stop offset="1" stop-color="#0a0e16"/></linearGradient>
  <linearGradient id="snd" x1="0" y1="0" x2="0" y2="1"><stop offset="0" stop-color="#cdd6df"/><stop offset="1" stop-color="#9aa6b2"/></linearGradient>
  <!-- GoPro body: matte charcoal -->
  <linearGradient id="gpBody" x1="0" y1="0" x2="0.25" y2="1"><stop offset="0" stop-color="#39414d"/><stop offset=".5" stop-color="#23292f"/><stop offset="1" stop-color="#15191e"/></linearGradient>
  <radialGradient id="gpLensGlass" cx="42%" cy="36%" r="68%"><stop offset="0" stop-color="#3b6ea0"/><stop offset=".35" stop-color="#173a5c"/><stop offset=".75" stop-color="#0a1a2c"/><stop offset="1" stop-color="#05101c"/></radialGradient>
  <radialGradient id="gpRing" cx="40%" cy="32%" r="75%"><stop offset="0" stop-color="#6b7682"/><stop offset=".6" stop-color="#2c333c"/><stop offset="1" stop-color="#171b21"/></radialGradient>
  <linearGradient id="gpScreen" x1="0" y1="0" x2="0" y2="1"><stop offset="0" stop-color="#9fc6e6"/><stop offset=".5" stop-color="#3f6f9c"/><stop offset=".5" stop-color="#5c8048"/><stop offset="1" stop-color="#2e4a2b"/></linearGradient>
  <style>.mono{font-family:ui-monospace,"SF Mono",Menlo,monospace}.sans{font-family:-apple-system,"Segoe UI",Roboto,sans-serif}.gplogo{font-family:-apple-system,"Helvetica Neue",Arial,sans-serif;font-weight:800}</style>
</defs>
<rect width="1000" height="560" fill="url(#csbg)"/>
<text x="40" y="48" class="mono" font-size="15" letter-spacing="3" fill="#7186a0">TRUE TO SCALE · SAME VIEW</text>

<!-- scale: 6.4 px/mm · baseline y=470 · both H=51mm=326px → tops at 144 -->
<line x1="96" y1="144" x2="96" y2="470" stroke="#22d3ee" stroke-width="1.5"/>
<line x1="90" y1="144" x2="102" y2="144" stroke="#22d3ee" stroke-width="1.5"/>
<line x1="90" y1="470" x2="102" y2="470" stroke="#22d3ee" stroke-width="1.5"/>
<text x="84" y="312" class="mono" font-size="13" fill="#67e8f9" text-anchor="end" transform="rotate(-90 84 312)">51 mm · same height</text>

<!-- SENDER (ours): 57 mm wide → 365px, x 130..495 -->
<rect x="130" y="144" width="365" height="326" rx="14" fill="url(#snd)" stroke="rgba(255,255,255,.25)"/>
<rect x="130" y="144" width="365" height="14" rx="14" fill="#e6edf3" opacity=".5"/>
<circle cx="250" cy="300" r="42" fill="#0e1726" stroke="#9aa6b2" stroke-width="6"/><circle cx="250" cy="300" r="22" fill="#1f4a78"/>
<rect x="250" y="470" width="22" height="34" fill="#9aa6b2"/><rect x="300" y="470" width="22" height="34" fill="#9aa6b2"/>
<text x="312" y="500" class="sans" font-size="17" font-weight="700" fill="#cfdcea" text-anchor="middle">SkyLive sender</text>
<line x1="130" y1="128" x2="495" y2="128" stroke="rgba(255,255,255,.4)" stroke-width="1"/>
<text x="312" y="120" class="mono" font-size="12" fill="#aebdce" text-anchor="middle">57 mm</text>

<!-- ===== GoPro (reference): realistic HERO front · 71 mm → 454px, x 540..994 ===== -->
<rect x="540" y="144" width="454" height="326" rx="26" fill="url(#gpBody)" stroke="rgba(255,255,255,.12)"/>
<!-- top edge highlight + bottom shade -->
<rect x="552" y="150" width="430" height="8" rx="6" fill="#646f7c" opacity=".45"/>
<!-- HERO13 front grill texture (fine horizontal lines, lower band) -->
<g stroke="#0e1217" stroke-width="2" opacity=".45">
  <line x1="566" y1="392" x2="968" y2="392"/><line x1="566" y1="404" x2="968" y2="404"/>
  <line x1="566" y1="416" x2="968" y2="416"/><line x1="566" y1="428" x2="968" y2="428"/></g>
<!-- mode button on the left side edge -->
<rect x="534" y="250" width="10" height="56" rx="4" fill="#11151b" stroke="#3a434e" stroke-width="1.5"/>
<!-- drain mic -->
<circle cx="576" cy="180" r="3.5" fill="#0c1016"/>
<!-- LENS: protruding ring + blue glass + specular glint (left-of-centre, the GoPro signature) -->
<circle cx="668" cy="300" r="74" fill="url(#gpRing)"/>
<circle cx="668" cy="300" r="74" fill="none" stroke="#0d1116" stroke-width="2"/>
<circle cx="668" cy="300" r="60" fill="#10151b"/>
<circle cx="668" cy="300" r="52" fill="url(#gpLensGlass)"/>
<circle cx="668" cy="300" r="52" fill="none" stroke="#2f74ad" stroke-width="2" opacity=".55"/>
<circle cx="668" cy="300" r="22" fill="#06121f"/>
<!-- glints -->
<ellipse cx="648" cy="278" rx="16" ry="10" fill="#cfe6f6" opacity=".55" transform="rotate(-30 648 278)"/>
<circle cx="690" cy="322" r="4" fill="#bfe0f5" opacity=".5"/>
<!-- FRONT colour screen (right) with faint live preview -->
<rect x="856" y="238" width="104" height="124" rx="10" fill="#070b10" stroke="#3a434e" stroke-width="2"/>
<rect x="862" y="244" width="92" height="112" rx="6" fill="url(#gpScreen)" opacity=".9"/>
<rect x="862" y="244" width="92" height="14" rx="6" fill="#0a0e14" opacity=".5"/>
<circle cx="872" cy="252" r="2.5" fill="#ef5a4f"/><text x="880" y="255" class="mono" font-size="7" fill="#fff">REC</text>
<!-- GoPro wordmark -->
<text x="668" y="448" class="gplogo" font-size="22" fill="#eef2f6" text-anchor="middle" letter-spacing="-.5">GoPro</text>
<text x="767" y="500" class="sans" font-size="17" font-weight="700" fill="#9fb0c2" text-anchor="middle">a GoPro · for scale</text>
<line x1="540" y1="128" x2="994" y2="128" stroke="rgba(255,255,255,.4)" stroke-width="1"/>
<text x="767" y="120" class="mono" font-size="12" fill="#aebdce" text-anchor="middle">~71 mm</text>

<text x="500" y="542" class="sans" font-size="16" fill="#aebdce" text-anchor="middle">Same height as a GoPro — a slimmer footprint, but with a real <tspan fill="#22d3ee" font-weight="700">1 W radio</tspan> inside.</text>
</svg>
